<html>
<head>
<meta charset="UTF-8">
<meta name="viewport" content="width=device-width, initial-scale=1.0"/>

<style>
.comment
{
    padding-left: 20px;
    margin-top: 4px;
    margin-right: 4px;
    margin-bottom: 4px;
    border: 2px #000 solid;
}
.submission
{
    border: 4px #00f solid;
    padding-left: 20px;
}
.hidden
{
    display: none;
}
</style>
</head>
<body><div class="submission" id="t3_7dnbnj">
    <p class="userinfo">
        <a href="https://www.reddit.com/u/MrWifeSteal007">MrWifeSteal007</a>
        <span class="score"> | 11 points</span>
        <span class="timestamp"> | Nov 17 2017 19:25:06</span>
    </p>
    <strong>[MOVIE]Justice League (2017) CAMRip | Rus (Audio)(900MB)</strong>
    <p><p><a href="http://links.snahp.it/943jl17">Link</a></p>
<p><a href="https://redd.it/7donl4">ENGLISH Audio</a></p>
<p><strong>General</strong></p>
<p>Complete name                            : J.l.17.mkv
Format                                   : Matroska
Format version                           : Version 4 / Version 2
File size                                : 900 MiB
Duration                                 : 1 h 47 min
Overall bit rate                         : 1 168 kb/s
Writing application                      : Lavf57.83.100
Writing library                          : Lavf57.83.100
ErrorDetectionType                       : Per level 1</p>
<p><strong>Video</strong></p>
<p>ID                                       : 1
Format                                   : HEVC
Format/Info                              : High Efficiency Video Coding
Format profile                           : Main@L3@Main
Codec ID                                 : V_MPEGH/ISO/HEVC
Duration                                 : 1 h 47 min
Bit rate                                 : 953 kb/s
Width                                    : 720 pixels
Height                                   : 304 pixels
Display aspect ratio                     : 2.35:1
Frame rate mode                          : Constant
Frame rate                               : 59.940 (59940/1000) FPS
Standard                                 : Component
Color space                              : YUV
Chroma subsampling                       : 4:2:0
Bit depth                                : 8 bits
Bits/(Pixel*Frame)                       : 0.073
Stream size                              : 734 MiB (82%)
Default                                  : Yes
Forced                                   : No
Color range                              : Limited
Matrix coefficients                      : BT.470 System B, BT.470 System G</p>
<p><strong>Audio</strong></p>
<p>ID                                       : 2
Format                                   : AC-3
Format/Info                              : Audio Coding 3
Codec ID                                 : A_AC3
Duration                                 : 1 h 47 min
Bit rate mode                            : Constant
Bit rate                                 : 192 kb/s
Channel(s)                               : 2 channels
Channel positions                        : Front: L R
Sampling rate                            : 48.0 kHz
Frame rate                               : 31.250 FPS (1536 SPF)
Bit depth                                : 16 bits
Compression mode                         : Lossy
Stream size                              : 148 MiB (16%)
Service kind                             : Complete Main
Default                                  : No
Forced                                   : No</p></p>
    <p class="toolbar">
        <a href="https://www.reddit.com/r/megalinks/comments/7dnbnj">permalink</a>
    </p>
</div>
<div class="comment" id="t1_dpz0i1i">
    <p class="userinfo">
        <a
        class="toggle_hide_button"
        href="javascript:void(0)"
        onclick="toggle_collapse(this.parentElement.parentElement)">[-]
        </a>
        <a href="https://www.reddit.com/u/boltrop">boltrop</a>
        <span class="score"> | 1 points</span>
        <span class="timestamp"> | Nov 17 2017 19:29:05</span>
    </p>
    <div class="collapsible">
        <h3><a href="https://images-na.ssl-images-amazon.com/images/M/MV5BNDgwNjMwNjM1OV5BMl5BanBnXkFtZTgwNjA2Njk5MzI@._V1_.jpg">Justice League</a> (2017)</h3>
<p><strong>Genre</strong>: Action, Adventure, Fantasy, Sci-Fi</p>
<p><strong>Rating</strong>:  7.8 (28537 votes)</p>
<p><strong>Certification</strong>: PG-13</p>
<p><strong>Runtime</strong>: 120 min</p>
<hr>
<blockquote>
<p><strong>Director(s)</strong>: <a href="https://www.imdb.com/name/nm0811583/">Zack Snyder</a></p>
<p><strong>Writer(s)</strong>: <a href="https://www.imdb.com/name/nm0006516/">Chris Terrio</a>, <a href="https://www.imdb.com/name/nm0923736/">Joss Whedon</a></p>
<p><strong>Cast</strong>: <a href="https://www.imdb.com/name/nm0000255/">Ben Affleck</a>, <a href="https://www.imdb.com/name/nm2933757/">Gal Gadot</a>, <a href="https://www.imdb.com/name/nm0597388/">Jason Momoa</a>, <a href="https://www.imdb.com/name/nm3009232/">Ezra Miller</a></p>
<p><strong>Plot</strong>: Fueled by his restored faith in humanity and inspired by Superman's selfless act, Bruce Wayne enlists the help of his newfound ally, Diana Prince, to face an even greater enemy.</p>
</blockquote>
<hr>
<p>^This ^summary ^is ^taken ^from <a href="https://www.imdb.com/title/tt0974015/">^imdb.com</a> ^| ^For ^feedback ^or ^suggestions ^contact <a href="http://www.reddit.com/message/compose/?to=indigo6alpha">^/u/indigo6alpha</a></p>
        <p class="toolbar">
            <a href="https://www.reddit.com/r/megalinks/comments/7dnbnj/_/dpz0i1i">permalink</a>
        </p>
        
    </div>
</div>

<div class="comment" id="t1_dpzbge8">
    <p class="userinfo">
        <a
        class="toggle_hide_button"
        href="javascript:void(0)"
        onclick="toggle_collapse(this.parentElement.parentElement)">[-]
        </a>
        <a href="https://www.reddit.com/u/look8me">look8me</a>
        <span class="score"> | 1 points</span>
        <span class="timestamp"> | Nov 17 2017 22:50:51</span>
    </p>
    <div class="collapsible">
        <p>how much time before we get the one with regular audio?</p>
        <p class="toolbar">
            <a href="https://www.reddit.com/r/megalinks/comments/7dnbnj/_/dpzbge8">permalink</a>
        </p>
        <div class="comment" id="t1_dpzbjig">
    <p class="userinfo">
        <a
        class="toggle_hide_button"
        href="javascript:void(0)"
        onclick="toggle_collapse(this.parentElement.parentElement)">[-]
        </a>
        <a href="https://www.reddit.com/u/MrWifeSteal007">MrWifeSteal007</a>
        <span class="score"> | 5 points</span>
        <span class="timestamp"> | Nov 17 2017 22:52:32</span>
    </p>
    <div class="collapsible">
        <p><a href="https://redd.it/7donl4">uploaded</a> with eng audio</p>
        <p class="toolbar">
            <a href="https://www.reddit.com/r/megalinks/comments/7dnbnj/_/dpzbjig">permalink</a>
        </p>
        
    </div>
</div>
    </div>
</div>
</body>

<script>
function toggle_collapse(comment_div)
{
    var button = comment_div.getElementsByClassName("toggle_hide_button")[0];
    var collapsible = comment_div.getElementsByClassName("collapsible")[0];
    if (collapsible.classList.contains("hidden"))
    {
        collapsible.classList.remove("hidden");
        button.innerText = "[-]";
    }
    else
    {
        collapsible.classList.add("hidden");
        button.innerText = "[+]";
    }
}
</script>
</html>
